<mxfile host="app.diagrams.net" modified="2023-12-16T20:06:27.575Z" agent="Mozilla/5.0 (Windows NT 10.0; Win64; x64; rv:120.0) Gecko/20100101 Firefox/120.0" etag="JTXn66-dH49SZ7FqyhfD" version="22.1.11" type="github">
  <diagram name="Page-1" id="3DDXshn0Ms3Wkzo7EwqE">
    <mxGraphModel dx="1050" dy="530" grid="1" gridSize="10" guides="1" tooltips="1" connect="1" arrows="1" fold="1" page="1" pageScale="1" pageWidth="827" pageHeight="1169" math="0" shadow="0">
      <root>
        <mxCell id="0" />
        <mxCell id="1" parent="0" />
        <mxCell id="Ew0dXAfvq3uIeFe922-x-5" value="" style="strokeColor=#dddddd;shadow=1;strokeWidth=1;rounded=1;absoluteArcSize=1;arcSize=2;" vertex="1" parent="1">
          <mxGeometry x="240" y="320" width="240" height="60" as="geometry" />
        </mxCell>
        <mxCell id="Ew0dXAfvq3uIeFe922-x-21" style="edgeStyle=orthogonalEdgeStyle;rounded=0;orthogonalLoop=1;jettySize=auto;html=1;exitX=0.5;exitY=1;exitDx=0;exitDy=0;entryX=0.5;entryY=0;entryDx=0;entryDy=0;" edge="1" parent="1" source="Ew0dXAfvq3uIeFe922-x-12" target="Ew0dXAfvq3uIeFe922-x-5">
          <mxGeometry relative="1" as="geometry" />
        </mxCell>
        <mxCell id="Ew0dXAfvq3uIeFe922-x-25" style="edgeStyle=orthogonalEdgeStyle;rounded=0;orthogonalLoop=1;jettySize=auto;html=1;exitX=1;exitY=0.5;exitDx=0;exitDy=0;entryX=0;entryY=0.5;entryDx=0;entryDy=0;" edge="1" parent="1" source="Ew0dXAfvq3uIeFe922-x-12" target="Ew0dXAfvq3uIeFe922-x-23">
          <mxGeometry relative="1" as="geometry" />
        </mxCell>
        <mxCell id="Ew0dXAfvq3uIeFe922-x-12" value="" style="strokeColor=#dddddd;shadow=1;strokeWidth=1;rounded=1;absoluteArcSize=1;arcSize=2;" vertex="1" parent="1">
          <mxGeometry x="240" y="200" width="240" height="60" as="geometry" />
        </mxCell>
        <mxCell id="Ew0dXAfvq3uIeFe922-x-13" value="&lt;font color=&quot;#000000&quot;&gt;Machine Virtuelle MAGE&lt;/font&gt;&lt;br&gt;Compute Engine" style="editableCssRules=.*;html=1;fontColor=#999999;shape=image;verticalLabelPosition=middle;verticalAlign=middle;labelPosition=right;align=left;spacingLeft=20;part=1;points=[];imageAspect=0;image=data:image/svg+xml,PHN2ZyB4bWxucz0iaHR0cDovL3d3dy53My5vcmcvMjAwMC9zdmciIHhtbG5zOnY9Imh0dHBzOi8vdmVjdGEuaW8vbmFubyIgd2lkdGg9IjIwIiBoZWlnaHQ9IjIwIiB2aWV3Qm94PSIwIDAgMjAgMjAiPiYjeGE7CTxzdHlsZSB0eXBlPSJ0ZXh0L2NzcyI+JiN4YTsJLnN0MHtmaWxsOiM0Mjg1ZjQ7fSYjeGE7CS5zdDF7ZmlsbDojNjY5ZGY2O30mI3hhOwkuc3Qye2ZpbGw6I2FlY2JmYTt9JiN4YTsJPC9zdHlsZT4mI3hhOwk8cGF0aCBjbGFzcz0ic3QyIiBkPSJNNyA3aDZ2Nkg3eiIvPiYjeGE7CTxwYXRoIGNsYXNzPSJzdDEiIGQ9Ik05IDBoMnY0SDl6TTUgMGgydjRINXptOCAwaDJ2NGgtMnoiLz4mI3hhOwk8cGF0aCBjbGFzcz0ic3QwIiBkPSJNOSAxNmgydjRIOXptLTQgMGgydjRINXptOCAwaDJ2NGgtMnptMy01VjloNHYyem0wIDR2LTJoNHYyem0wLThWNWg0djJ6Ii8+JiN4YTsJPHBhdGggY2xhc3M9InN0MSIgZD0iTTAgMTFWOWg0djJ6bTAgNHYtMmg0djJ6bTAtOFY1aDR2MnoiLz4mI3hhOwk8cGF0aCBjbGFzcz0ic3QyIiBkPSJNMyAzdjE0aDE0VjN6bTEyIDEySDVWNWgxMHoiLz4mI3hhOwk8cGF0aCBjbGFzcz0ic3QxIiBkPSJNMTAgMTBsLTMgM2g2eiIvPiYjeGE7CTxwYXRoIGNsYXNzPSJzdDAiIGQ9Ik0xMyA3bC0zIDMgMyAzeiIvPiYjeGE7PC9zdmc+;" vertex="1" parent="Ew0dXAfvq3uIeFe922-x-12">
          <mxGeometry width="30" height="30" relative="1" as="geometry">
            <mxPoint x="15" y="15" as="offset" />
          </mxGeometry>
        </mxCell>
        <mxCell id="Ew0dXAfvq3uIeFe922-x-14" value="&lt;div&gt;&lt;font color=&quot;#000000&quot;&gt;Machine Virtuelle MAGE&lt;/font&gt;&lt;/div&gt;ETL : CrÃ©ation de la pipeline" style="editableCssRules=.*;html=1;fontColor=#999999;shape=image;verticalLabelPosition=middle;verticalAlign=middle;labelPosition=right;align=left;spacingLeft=20;part=1;points=[];imageAspect=0;image=data:image/png,iVBORw0KGgoAAAANSUhEUgAABEwAAARMCAYAAACDAQa6AAABhGlDQ1BJQ0MgcHJvZmlsZQAAKJF9kT1Iw0AcxV8/xCIVB4uICGaoThaKijhqFYpQIdQKrTqYXPoFTRqSFBdHwbXg4Mdi1cHFWVcHV0EQ/ABxc3NSdJES/5cUWsR4cNyPd/ced+8Af6PCVDMYB1TNMtLJhJDNrQrdrwhiACGMIC4xU58TxRQ8x9c9fHy9i/Es73N/jl4lbzLAJxDPMt2wiDeIpzctnfM+cYSVJIX4nHjcoAsSP3JddvmNc9FhP8+MGJn0PHGEWCh2sNzBrGSoxFPEUUXVKN+fdVnhvMVZrdRY6578heG8trLMdZrDSGIRSxAhQEYNZVRgIUarRoqJNO0nPPxDjl8kl0yuMhg5FlCFCsnxg//B727NwuSEmxROAF0vtv0xCnTvAs26bX8f23bzBAg8A1da219tADOfpNfbWvQI6NsGLq7bmrwHXO4Ag0+6ZEiOFKDpLxSA9zP6phzQfwv0rLm9tfZx+gBkqKvUDXBwCIwVKXvd492hzt7+PdPq7weG1XKvFxil8gAAAAZiS0dEAP8A/wD/oL2nkwAAAAlwSFlzAAALEwAACxMBAJqcGAAAAAd0SU1FB+UEFggiDd2/5TcAAAAZdEVYdENvbW1lbnQAQ3JlYXRlZCB3aXRoIEdJTVBXgQ4XAAAgAElEQVR42uzcPWtk2dnv4XWOD10MbigQyEwjQdPRhB117kB4gg6cuQUVVjCTKJuhJnGkSHk56KBCUa7MHqjI9DeooMAfoNnQkhpLSOxAICrxCfx4npk1/aKXqr3vvfd1fYQ7/PNb6//8+9///ncCAAAA4Cf/1wkAAAAAfslgAgAAAJAxmAAAAABkDCYAAAAAGYMJAAAAQMZgAgAAAJAxmAAAAABkDCYAAAAAGYMJAAAAQMZgAgAAAJAxmAAAAABkDCYAAAAAGYMJAAAAQMZgAgAAAJAxmAAAAABkDCYAAAAAGYMJAAAAQMZgAgAAAJAxmAAAAABkDCYAAAAAGYMJAAAAQMZgAgAAAJAxmAAAAABkDCYAAAAAGYMJAAAAQMZgAgAAAJAxmAAAAABkDCYAAAAAGYMJAAAAQMZgAgAAAJAxmAAAAABkDCYAAAAAGYMJAAAAQMZgAgAAAJAxmAAAAABkDCYAAAAAGYMJAAAAQMZgAgAAAJAxmAAAAABkDCYAAAAAGYMJAAAAQMZgAgAAAJAxmAAAAABkDCYAAAAAGYMJAAAAQMZgAgAAAJAxmAAAAABkDCYAAAAAGYMJAAAAQMZgAgAAAJAxmAAAAABkDCYAAAAAGYMJAAAAQMZgAgAAAJAxmAAAAABkDCYAAAAAGYMJAAAAQMZgAgAAAJAxmAAAAABkDCYAAAAAGYMJAAAAQMZgAgAAAJAxmAAAAABkDCYAAAAAGYMJAAAAQMZgAgAAAJAxmAAAAABkDCYAAAAAGYMJAAAAQMZgAgAAAJAxmAAAAABkDCYAAAAAGYMJAAAAQMZgAgAAAJAxmAAAAABkDCYAAAAAGYMJAAAAQMZgAgAAAJAxmAAAAABkDCYAAAAAGYMJAAAAQMZgAgAAAJAxmAAAAABkDCYAAAAAGYMJAAAAQMZgAgAAAJAxmAAAAABkDCYAAAAAGYMJAAAAQMZgAgAAAJAxmAAAAABkDCYAAAAAGYMJAAAAQMZgAgAAAJAxmAAAAABkDCYAAAAAGYMJAAAAQMZgAgAAAJAxmAAAAABkDCYAAAAAGYMJAAAAQMZgAgAAAJAxmAAAAABkDCYAAAAAGYMJAAAAQMZgAgAAAJAxmAAAAABkDCYAAAAAGYMJAAAAQMZgAgAAAJAxmAAAAABkDCYAAAAAGYMJAAAAQMZgAgAAAJAxmAAAAABkDCYAAAAAGYMJAAAAQMZgAgAAAJAxmAAAAABkDCYAAAAAGYMJAAAAQMZgAgAAAJAxmAAAAABkDCYAAAAAGYMJAAAAQMZgAgAAAJAxmAAAAABkDCYAAAAAGYMJAAAAQMZgAgAAAJAxmAAAAABkDCYAAAAAGYMJAAAAQMZgAgAAAJAxmAAAAABkDCYAAAAAGYMJAAAAQMZgAgAAAJAxmAAAAABkDCYAAAAAGYMJAAAAQMZgAgAAAJAxmAAAAABkDCYAAAAAGYMJAAAAQMZgAgAAAJAxmAAAAABkDCYAAAAAGYMJAAAAQMZgAgAAAJAxmAAAAABkDCYAAAAAGYMJAAAAQMZgAgAAAJAxmAAAAABkDCYAAAAAGYMJAAAAQMZgAgAAAJAxmAAAAABkDCYAAAAAGYMJAAAAQMZgAgAAAJAxmAAAAABkDCYAAAAAGYMJAAAAQMZgAgAAAJAxmAAAAABkDCYAAAAAGYMJAAAAQMZgAgAAAJAxmAAAAABkDCYAAAAAGYMJAAAAQMZgAgAAAJAxmAAAAABkDCYAAAAAGYMJAAAAQMZgAgAAAJAxmAAAAABkDCYAAAAAGYMJAAAAQMZgAgAAAJAxmAAAAABkDCYAAAAAGYMJAAAAQMZgAgAAAJAxmAAAAABkDCYAAAAAGYMJAAAAQMZgAgAAAJAxmAAAAABkDCYAAAAAGYMJAAAAQMZgAgAAAJAxmAAAAABkDCYAAAAAGYMJAAAAQMZgAgAAAJAxmAAAAABkDCYAAAAAGYMJAAAAQMZgAgAAAJAxmAAAAABkDCYAAAAAGYMJAAAAQMZgAgAAAJAxmAAAAABkDCYAAAAAGYMJAAAAQMZgAgAAAJAxmAAAAABkDCYAAAAAGYMJAAAAQMZgAgAAAJAxmAAAAABkDCYAAAAAGYMJAAAAQMZgAgAAAJAxmAAAAABkDCYAAAAAGYMJAAAAQMZgAgAAAJAxmAAAAABkDCYAAAAAGYMJAAAAQMZgAgAAAJAxmAAAAABkDCYAAAAAGYMJAAAAQMZgAgAAAJAxmAAAAABkDCYAAAAAGYMJAAAAQMZgAgAAAJAxmAAAAABkDCYAAAAAGYMJAAAAQMZgAgAAAJAxmAAAAABkDCYAAAAAGYMJAAAAQMZgAgAAAJAxmAAAAABkDCYAAAAAGYMJAAAAQMZgAgAAAJAxmAAAAABkDCYAAAAAGYMJAAAAQMZgAgAAAJAxmAAAAABkDCYAAAAAGYMJAAAAQMZgAgAAAJAxmAAAAABkDCYAAAAAGYMJAAAAQMZgAgAAAJAxmAAAAABkDCYAAAAAGYMJAAAAQMZgAgAAAJAxmAAAAABkDCYAAAAAGYMJAAAAQMZgAgAAAJD5f04AAOvz448/ph9//NEhqNRf/vKX1Ov1HIIPWq1W6fDwMJ2dnTkGlfnTn/6U/vCHPzgEjWYwAYA1Kcsy/fGPf3QIKjUcDo0lfNLZ2Vn65z//mf7+9787BpXZ3993BBrPkxwAWJP5fO4IQCir1Sqdn587BMA9GEwAYA3KskyDwcAhgFA8wwG4P4MJAKyBugSIRl0C8DAGEwB4IHUJEJG6BOBhDCYA8EDqEiAadQnAwxlMAOAB1CVAROoSgIczmADAA7x+/doRgFDUJQDrYTABgHsqiiKNRiOHAEJRlwCsh8EEAO5pNps5AhCKugRgfQwmAHAPy+VSXQKEoy4BWB+DCQDcw3g8dgQglOvra3UJwBoZTADgjpbLZZpMJg4BhHJ6euoIAGtkMAGAO1KXANFcX1+nsiwdAmCNDCYAcAfqEiCit2/fOgLAmhlMAOAO1CVANFdXV+nm5sYhANbMYAIAt6QuASI6OTlxBIANMJgAwC2pS4Bo1CUAm2MwAYBbUJcAEalLADbHYAIAt6AuAaJRlwBslsEEAD5DXQJEpC4B2CyDCQB8QlmW6hIgHHUJwOYZTADgExaLhboECEddArB5BhMA+IiyLNN0OnUIIBR1CUA1DCYA8BHqEiAidQlANQwmAPAB6hIgovfv36tLACpiMAGAD5jP5+oSIJTVapUuLi4cAqAiBhMAyJRlmQaDgUMAoVxeXqpLACpkMAGAzHw+dwQgFHUJQPUMJgDwM+oSIKKzszN1CUDFDCYA8DPqEiCa1WqVzs/PHQKgYgYTAPgf6hIgorOzM0cAqIHBBAD+h7oEiEZdAlAfgwkAJHUJEJO6BKA+BhMASOoSIB51CUC9DCYAdJ66BIhIXQJQL4MJAJ3317/+1RGAUNQlAPUzmADQaUVRpG+//dYhgFDUJQD1M5gA0Gmz2cwRgFDUJQAxGEwA6KyiKNJoNHIIIBR1CUAMBhMAOuvw8NARgFDUJQBxGEwA6KTlcpkmk4lDAKEUReEIAEEYTADopPF47AhAKNfX16ksS4cACMJgAkDnqEuAiE5PTx0BIBCDCQCdoy4Borm6ulKXAARjMAGgU9QlQEQnJyeOABCMwQSATlGXANFcXV2lm5sbhwAIxmACQGeoS4CI1CUAMRlMAOgMdQkQjboEIC6DCQCdoC4BIlKXAMRlMAGgE9QlQDTqEoDYDCYAtN6bN2/UJUA46hKA2AwmALRaWZZpOp06BBCKugQgPoMJAK22WCzUJUA46hKA+AwmALSWugSISF0C0AwGEwBaS10CRLNardQlAA1hMAGglcqyTHt7ew4BhHJ5eakuAWgIgwkArTSfzx0BCGW1WqWLiwuHAGgIgwkArVOWZRoMBg4BhKIuAWgWgwkAraMuAaJZrVbp3bt3DgHQIAYTAFpFXQJEdHZ25ggADWMwAaBV1CVANKvVKp2fnzsEQMMYTABoDXUJEJG6BKCZDCYAtIa6BIhGXQLQXAYTAFpBXQJEpC4BaC6DCQCtoC4BolGXADSbwQSAxiuKQl0ChKMuAWg2gwkAjTebzRwBCEVdAtB8BhMAGq0oijQajRwCCEVdAtB8BhMAGk1dAkSjLgFoB4MJAI21XC7VJUA46hKAdjCYANBY4/HYEYBQrq+v1SUALWEwAaCRlstlmkwmDgGEcnp66ggALWEwAaCR1CVANNfX16ksS4cAaAmDCQCNoy4BInr79q0jALSIwQSAxlGXANFcXV2lm5sbhwBoEYMJAI2iLgEiOjk5cQSAljGYANAo6hIgGnUJQDsZTABoDHUJEJG6BKCdDCYANIa6BIhGXQLQXgYTABpBXQJEpC4BaC+DCQDhlWWpLgHCUZcAtJvBBIDwFouFugQIR10C0G4GEwBCK8syTadThwBCUZcAtJ/BBIDQ1CVAROoSgPYzmAAQlroEiOj9+/fqEoAOMJgAENZ8PleXAKGsVqt0cXHhEAAdYDABIKSyLNNgMHAIIJTLy0t1CUBHGEwACGk+nzsCEIq6BKBbDCYAhKMuASI6OztTlwB0iMEEgHDUJUA0q9UqnZ+fOwRAhxhMAAhFXQJEdHZ25ggAHWMwASAUdQkQjboEoJsMJgCEoS4BIlKXAHSTwQSAMNQlQDTqEoDuMpgAEIK6BIhIXQLQXQYTAEJ4/fq1IwChqEsAus1gAkDtiqJIo9HIIYBQ1CUA3WYwAaB2s9nMEYBQ1CUAGEwAqJW6BIhIXQKAwQSAWh0eHjoCEIq6BICUDCYA1Gi5XKbJZOIQQChFUTgCAAYTAOozHo8dAQjl+vo6lWXpEAAYTACoh7oEiOj09NQRAEgpGUwAqIm6BIjm6upKXQLATwwmAFROXQJEdHJy4ggA/MRgAkDl1CVANFdXV+nm5sYhAPiJwQSASqlLgIjUJQDkDCYAVEpdAkSjLgHgQwwmAFRGXQJEpC4B4EMMJgBURl0CRKMuAeBjDCYAVOLNmzfqEiAcdQkAH2MwAWDjyrJM0+nUIYBQ1CUAfIrBBICNWywW6hIgHHUJAJ9iMAFgo9QlQETqEgA+x2ACwEapS4BoVquVugSAzzKYALAxZVmmvb09hwBCuby8VJcA8FkGEwA2Zj6fOwIQymq1ShcXFw4BwGcZTADYiLIs02AwcAggFHUJALdlMAFgI9QlQDSr1Sq9e/fOIQC4FYMJAGunLgEiOjs7cwQAbs1gAsDaqUuAaFarVTo/P3cIAG7NYALAWqlLgIjUJQDclcEEgLVSlwDRqEsAuA+DCQBroy4BIlKXAHAfBhMA1kZdAkSjLgHgvgwmAKxFURTqEiAcdQkA92UwAWAtZrOZIwChqEsAeAiDCQAPVhRFGo1GDgGEoi4B4CEMJgA8mLoEiEZdAsBDGUwAeJDlcqkuAcJRlwDwUAYTAB5kPB47AhDK9fW1ugSABzOYAHBvy+UyTSYThwBCOT09dQQAHsxgAsC9qUuAaK6vr1NZlg4BwIMZTAC4F3UJENHbt28dAYC1MJgAcC/qEiCaq6urdHNz4xAArIXBBIA7U5cAEZ2cnDgCAGtjMAHgztQlQDTqEgDWzWACwJ2oS4CI1CUArJvBBIA7UZcA0ahLANgEgwkAt6YuASJSlwCwCQYTAG6lLEt1CRCOugSATTGYAHAri8VCXQKEoy4BYFMMJgB8VlmWaTqdOgQQiroEgE0ymADwWeoSICJ1CQCbZDAB4JPUJUBE79+/V5cAsFEGEwA+aT6fq0uAUFarVbq4uHAIADbKYALAR5VlmQaDgUMAoVxeXqpLANg4gwkAHzWfzx0BCEVdAkBVDCYAfJC6BIjo7OxMXQJAJQwmAHyQugSIZrVapfPzc4cAoBIGEwB+RV0CRHR2duYIAFTGYALAr6hLgGjUJQBUzWACwC+oS4CI1CUAVM1gAsAvqEuAaNQlANTBYALAT9QlQETqEgDqYDAB4CevX792BCAUdQkAdTGYAJBSSqkoijQajRwCCEVdAkBdDCYApJRSms1mjgCEoi4BoE4GEwDUJUBI6hIA6mQwASAdHh46AhCKugSAuhlMADpuuVymyWTiEEAoRVE4AgC1MpgAdNx4PHYEIJTr6+tUlqVDAFArgwlAh6lLgIhOT08dAYDaGUwAOkxdAkRzdXWlLgEgBIMJQEepS4CITk5OHAGAEAwmAB2lLgGiubq6Sjc3Nw4BQAgGE4AOUpcAEalLAIjEYALQQeoSIBp1CQDRGEwAOkZdAkSkLgEgGoMJQMeoS4Bo1CUARGQwAeiQN2/eqEuAcNQlAERkMAHoiLIs03Q6dQggFHUJAFEZTAA6YrFYqEuAcNQlAERlMAHoAHUJEJG6BIDIDCYAHTCfz9UlQCir1UpdAkBoBhOAlivLMg0GA4cAQrm8vFSXABCawQSg5ebzuSMAoaxWq3RxceEQAIRmMAFoMXUJEJG6BIAmMJgAtJi6BIhmtVqld+/eOQQA4RlMAFpKXQJEdHZ25ggANILBBKCl1CVANKvVKp2fnzsEAI1gMAFoIXUJEJG6BIAmMZgAtJC6BIhGXQJA0xhMAFpGXQJEpC4BoGkMJgAtoy4BolGXANBEBhOAFimKQl0ChKMuAaCJDCYALTKbzRwBCEVdAkBTGUwAWqIoijQajRwCCEVdAkBTGUwAWkJdAkSjLgGgyQwmAC2wXC7VJUA46hIAmsxgAtAC4/HYEYBQrq+v1SUANJrBBKDhlstlmkwmDgGEcnp66ggANJrBBKDh1CVANNfX16ksS4cAoNEMJgANpi4BInr79q0jANB4BhOABlOXANFcXV2lm5sbhwCg8QwmAA2lLgEiOjk5cQQAWsFgAtBQ6hIgGnUJAG1iMAFoIHUJEJG6BIA2MZgANJC6BIhGXQJA2xhMABpGXQJEpC4BoG0MJgANUpalugQIR10CQBsZTAAaZLFYqEuAcNQlALSRwQSgIcqyTNPp1CGAUNQlALSVwQSgIdQlQETqEgDaymAC0ABlWaa9vT2HAEJ5//69ugSA1jKYADTAfD53BCCU1WqVLi4uHAKA1jKYAARXlmUaDAYOAYRyeXmpLgGg1QwmAMGpS4Bo1CUAdIHBBCAwdQkQ0dnZmboEgNYzmAAEpi4BolmtVun8/NwhAGg9gwlAUOoSIKKzszNHAKATDCYAQalLgGjUJQB0icEEICB1CRCRugSALjGYAASkLgGiUZcA0DUGE4Bg1CVAROoSALrGYAIQjLoEiEZdAkAXGUwAAimKQl0ChKMuAaCLDCYAgcxmM0cAQlGXANBVBhOAIIqiSKPRyCGAUNQlAHSVwQQgiMPDQ0cAQrm+vlaXANBZBhOAAJbLZZpMJg4BhHJ6euoIAHSWwQQggPF47AhAKNfX16ksS4cAoLMMJgA1U5cAEalLAOg6gwlAzdQlQDRXV1fqEgA6z2ACUCN1CRDRycmJIwDQeQYTgBqpS4Borq6u0s3NjUMA0HkGE4CaqEuAiNQlAPAfBhOAmqhLgGjUJQDwvwwmADVQlwARqUsA4H8ZTABqoC4BolGXAMAvGUwAKvbmzRt1CRCOugQAfslgAlChsizTdDp1CCAUdQkA/JrBBKBCi8VCXQKEoy4BgF8zmABURF0CRKQuAYAPM5gAVGQ+n6tLgFBWq5W6BAA+wmACUIGyLNNgMHAIIJTLy0t1CQB8hMEEoALz+dwRgFBWq1W6uLhwCAD4CIMJwIapS4CI1CUA8GkGE4ANU5cA0axWq/Tu3TuHAIBPMJgAbJC6BIjo7OzMEQDgMwwmABukLgGiWa1W6fz83CEA4DMMJgAboi4BIlKXAMDtGEwANkRdAkSjLgGA2zOYAGyAugSISF0CALdnMAHYAHUJEI26BADuxmACsGbqEiAidQkA3I3BBGDNXr9+7QhAKOoSALg7gwnAGhVFkUajkUMAoahLAODuDCYAazSbzRwBCEVdAgD3YzABWJPlcqkuAcIpisIRAOAeDCYAazIejx0BCOX6+jqVZekQAHAPBhOANVgul2kymTgEEMrp6akjAMA9GUwA1kBdAkSjLgGAhzGYADyQugSI6O3bt44AAA9gMAF4IHUJEM3V1VW6ublxCAB4AIMJwAOoS4CITk5OHAEAHshgAvAA6hIgGnUJAKyHwQTgntQlQETqEgBYD4MJwD2pS4Bo1CUAsD4GE4B7UJcAEalLAGB9DCYAd1SWpboECEddAgDrZTABuKPFYqEuAcJRlwDAehlMAO6gLMs0nU4dAghFXQIA62cwAbgDdQkQkboEANbPYAJwS2VZpr29PYcAQvnXv/6lLgGADTCYANzSfD53BAAA6AiDCcAtlGWZBoOBQwAAQEcYTABuQV0CAADdYjAB+Ax1CQAAdI/BBOAz1CUAANA9BhOAT1CXAABANxlMAD5BXQIAAN1kMAH4CHUJAAB0l8EE4CPUJQAA0F0GE4APUJcAAEC3GUwAPkBdAgAA3WYwAcgURaEuAQCAjjOYAGRms5kjAABAxxlMAH6mKIo0Go0cAgAAOs5gAvAzh4eHjgAAABhMAP5ruVymyWTiEAAAgMEE4L/G47EjAAAAKSWDCUBKSV0CAAD8ksEEIKlLAACAXzKYAJ2nLgEAAHIGE6Dz1CUAAEDOYAJ0mroEAAD4EIMJ0GnqEgAA4EMMJkBnqUsAAICPMZgAnaUuAQAAPsZgAnTSmzdv1CUAAMBHGUyAzinLMk2nU4cAAAA+ymACdM5isVCXAAAAn2QwATpFXQIAANyGwQToFHUJAABwGwYToDPKskx7e3sOAQAAfJbBBOiM+XzuCAAAwK0YTIBOKMsyDQYDhwAAAG7FYAJ0groEAAC4C4MJ0HrqEgAA4K4MJkDrqUsAAIC7MpgAraYuAQAA7sNgArSaugQAALgPgwnQWuoSAPiP3/72t44AcEcGE6C11CXU4fj42BGAULa3t9MXX3zhEAB3ZDABWkldQh2Oj4/T7373O4cAQnny5IkjANyDwQRopdevXzsClXv58qUjAKFsb2+nR48eOQTAPRhMgNYpiiKNRiOHoFL/+Mc/Ur/fdwggFHUJwP0ZTIDWmc1mjkClhsNhevHihUMAoahLAB7GYAK0ynK5VJdQuf39fXUJEI66BOBhDCZAq4zHY0egUuoSICJ1CcDDGUyA1lgul2kymTgElTo4OFCXAKH0ej11CcAaGEyA1lCXULXhcJieP3/uEEAo6hKA9TCYAK2gLqEOBwcHjgCE0uv10tbWlkMArIHBBGgFdQlVU5cAEalLANbHYAI0nrqEOqhLgGh6vV768ssvHQJgTQwmQOOpS6iaugSIaGdnxxEA1shgAjSauoQ6qEuAaPxdArB+BhOg0dQlVE1dAkSkLgFYP4MJ0FjqEuqgLgGiUZcAbIbBBGiksizVJVROXQJEpC4B2AyDCdBIi8VCXULl1CVANOoSgM0xmACNU5Zlmk6nDkGlfvjhB3UJEI66BGBzDCZA46hLqMO3337rCEAo6hKAzTKYAI2iLqEOR0dH6enTpw4BhKIuAdgsgwnQKPP5XF1C5V69euUIQCjqEoDNM5gAjVGWZRoMBg5BpY6Pj9UlQDjPnj1zBIANM5gAjTGfzx2Byr18+dIRgFD6/X56/PixQwBsmMEEaAR1CXU4Pj5O/X7fIYBQnjx54ggAFTCYAI2gLqEO6hIgmq2tLXUJQEUMJkB46hLqoC4BItrd3XUEgIoYTIDw1CXUQV0CRLO9vZ0ePXrkEAAVMZgAoalLqIO6BIjI3yUA1TKYAKGpS6iDugSIRl0CUD2DCRCWuoQ6qEuAiNQlANUzmABhqUuog7oEiEZdAlAPgwkQUlEU6hIqpy4BIlKXANTDYAKENJvNHIFKDYdDdQkQjroEoD4GEyCcoijSaDRyCCq1v7+vLgHCUZcA1MdgAoRzeHjoCFRqOBymFy9eOAQQiroEoF4GEyCU5XKZJpOJQ1ApdQkQkboEoF4GEyCU8XjsCFRqOBymvb09hwBC2d3dVZcA1MxgAoShLqEOBwcHjgCE0uv10tbWlkMA1MxgAoShLqFqw+EwPX/+3CGAUPxdAhCDwQQIQV1CHdQlQDTqEoA4DCZACOoSqqYuASLa2dlRlwAEYTABaqcuoQ7qEiAadQlALAYToHbqEqqmLgEi2tnZcQSAQAwmQK3UJdRBXQJEoy4BiMdgAtRKXULV1CVAROoSgHgMJkBt1CXUQV0CRKMuAYjJYALUoixLdQmVU5cAEalLAGIymAC1WCwW6hIq9/333zsCEIq6BCAugwlQubIs03Q6dQgqdXR0lL766iuHAEJRlwDEZTABKqcuoQ6vXr1yBCAUdQlAbAYToFJlWaa9vT2HoFJHR0fp6dOnDgGEoi4BiM1gAlRqPp87ApX75ptvHAEIpd/vq0sAgjOYAJUpyzINBgOHoFLHx8ep3+87BBDKkydPHAEgOIMJUBl1CXV4+fKlIwCh9Pv99PjxY4cACM5gAlRCXUId1CVARLu7u44A0AAGE6AS6hLqoC4Botne3k5ffPGFQwA0gMEE2Dh1CXVQlwAR+bsEoDkMJsDGqUuog7oEiGZ7ezs9evTIIQAawmACbJS6hDqoS4CI1CUAzWIwATZKXUId1CVANOoSgOYxmAAboy6hDuoSICJ1CUDzGEyAjXn9+rUjUKmvv/5aXQKEoy4BaCaDCbARRVGk0WjkEFTqu+++U5cA4ahLAJrJYAJsxGw2cwQqNRwO04sXLxwCCEVdAtBcBhNg7ZbLpbqEyu3v76tLgHDUJQDNZTAB1m48HjsClVKXABGpSwCazWACrNVyuUyTycQhqNTBwYG6BAil1+upSwAazmACrJW6hKoNh8P0/PlzhwBCUZcANJ/BBFgbdQl1ODg4cAQglF6vl7a2thwCoOEMJsDaqEuomroEiEhdAtAOBhNgLdQl1EFdAkTT6/XSl19+6RAALWAwAdZCXULV1L1XUDkAABXuSURBVCVARDs7O44A0BIGE+DB1CXUQV0CROPvEoB2MZgAD6YuoWrqEiAidQlAuxhMgAdRl1AHdQkQjboEoH0MJsCDqEuomroEiEhdAtA+BhPg3t68eaMuoXLqEiAadQlAOxlMgHspyzJNp1OHoFI//PCDugQIR10C0E4GE+BeFouFuoTKffvtt44AhKIuAWgvgwlwZ+oS6nB0dJSePn3qEEAo6hKA9jKYAHc2n8/VJVTu1atXjgCEoi4BaDeDCXAnZVmmwWDgEFTq+PhYXQKE8+zZM0cAaDGDCXAn8/ncEajcy5cvHQEIpd/vp8ePHzsEQIsZTIBbU5dQh+Pj49Tv9x0CCOXJkyeOANByBhPg1tQl1EFdAkSztbWlLgHoAIMJcCvqEuqgLgEi2t3ddQSADjCYALeiLqEO6hIgmu3t7fTo0SOHAOgAgwnwWeoS6qAuASLydwlAdxhMgM9Sl1AHdQkQjboEoFsMJsAnqUuog7oEiEhdAtAtBhPgk9Ql1EFdAkSjLgHoHoMJ8FFFUahLqJy6BIhIXQLQPQYT4KNms5kjUKnhcKguAcJRlwB0k8EE+KCiKNJoNHIIKrW/v68uAcJRlwB0k8EE+KDDw0NHoFLD4TC9ePHCIYBQ1CUA3WUwAX5luVymyWTiEFRKXQJEpC4B6C6DCfAr4/HYEajUcDhMe3t7DgGEsru7qy4B6DCDCfAL6hLqcHBw4AhAKL1eL21tbTkEQIcZTIBfUJdQteFwmJ4/f+4QQCj+LgHAYAL8RF1CHdQlQDTqEgBSMpgAP6MuoWrqEiCinZ0ddQkABhPgP9Ql1EFdAkSjLgHgvwwmQEpJXUL11CVARDs7O44AQErJYAIkdQn1UJcA0ahLAPg5gwmgLqFy6hIgInUJAD9nMIGOU5dQB3UJEI26BICcwQQ6rCxLdQmVU5cAEalLAMgZTKDDFouFuoTKff/9944AhKIuAeBDDCbQUWVZpul06hBU6ujoKH311VcOAYSiLgHgQwwm0FHqEurw6tUrRwBCUZcA8DEGE+igsizT3t6eQ1Cpo6Oj9PTpU4cAQlGXAPAxBhPooPl87ghU7ptvvnEEIJR+v68uAeCjDCbQMWVZpsFg4BBU6vj4OPX7fYcAQnny5IkjAPBRBhPoGHUJdXj58qUjAKH0+/30+PFjhwDgowwm0CHqEuqgLgEi2t3ddQQAPslgAh2iLqEO6hIgmu3t7fTFF184BACfZDCBjlCXUAd1CRCRv0sAuA2DCXSEuoQ6qEuAaLa3t9OjR48cAoDPMphAB6hLqIO6BIhIXQLAbRlMoAPUJdRBXQJEoy4B4C4MJtBy6hLqoC4BIlKXAHAXBhNoudevXzsClVOXANGoSwC4K4MJtFhRFGk0GjkElfrb3/6mLgHCUZcAcFcGE2ix2WzmCFRqOBym3//+9w4BhKIuAeA+DCbQUuoS6rC/v68uAcJRlwBwHwYTaKnDw0NHoFLD4TC9ePHCIYBQ1CUA3JfBBFpouVymyWTiEFRKXQJE0+v11CUA3JvBBFpoPB47ApUaDodpb2/PIYBQ1CUAPITBBFpGXUIdDg4OHAEIpdfrpa2tLYcA4N4MJtAy6hKqNhwO0/Pnzx0CCEVdAsBDGUygRdQl1EFdAkTT6/XS9va2QwDwIAYTaBF1CVVTlwAR7ezspN/85jcOAcCDGEygJdQl1EFdAkTj7xIA1sVgAi2hLqFq6hIgop2dHUcAYC0MJtAC6hLqoC4BolGXALBOBhNoAXUJVVOXABGpSwBYJ4MJNNybN2/UJVROXQJEoy4BYN0MJtBgZVmm6XTqEFRKXQJEpC4BYN0MJtBgi8VCXULl/vznPzsCEIq6BIBNMJhAQ6lLqMPR0VF6+vSpQwChqEsA2ASDCTTUfD5Xl1C5V69eOQIQiroEgE0xmEADlWWZBoOBQ1Cp4+NjdQkQzrNnzxwBgI0wmEADzedzR6ByL1++dAQglH6/nx4/fuwQAGyEwQQaRl1CHY6Pj1O/33cIIJQnT544AgAbYzCBhlGXUAd1CRDN1taWugSAjTKYQIOoS6iDugSIaHd31xEA2CiDCTSIuoQ6qEuAaLa3t9OjR48cAoCNMphAQ6hLqIO6BIjI3yUAVMFgAg2hLqEO6hIgGnUJAFUxmEADqEuog7oEiEhdAkBVDCbQAOoS6qAuAaJRlwBQJYMJBFcUhbqEyqlLgIjUJQBUyWACwc1mM0egUl9//bW6BAhHXQJA1QwmEFhRFGk0GjkElfruu+/UJUA46hIAqmYwgcDUJVRtOBymFy9eOAQQiroEgDoYTCCo5XKpLqFy+/v76hIgHHUJAHUwmEBQ4/HYEaiUugSIaHd3V10CQC0MJhDQcrlMk8nEIajUwcGBugQIpdfrpa2tLYcAoBYGEwhIXULVhsNhev78uUMAofi7BIA6GUwgGHUJdTg4OHAEIBR1CQB1M5hAMOoSqqYuASL68ssv1SUA1MpgAoGoS6iDugSIptfrpe3tbYcAoFYGEwhEXULV1CVARDs7O44AQO0MJhCEuoQ6qEuAaPxdAkAUBhMIQl1C1dQlQETqEgCiMJhAAOoS6qAuAaJRlwAQicEEalaWpbqEyqlLgIjUJQBEYjCBmi0WC3UJlVOXANGoSwCIxmACNSrLMk2nU4egUkdHR+oSIBx1CQDRGEygRuoS6vDq1StHAEJRlwAQkcEEalKWZdrb23MIKnV0dJSePn3qEEAo6hIAIjKYQE3m87kjUDl1CRCNugSAqAwmUIOyLNNgMHAIKnV8fKwuAcJ59uyZIwAQksEEaqAuoQ4vX750BCCUfr+fHj9+7BAAhGQwgYqpS6jD8fFx6vf7DgGE8uTJE0cAICyDCVRMXUId1CVANNvb2+oSAEIzmECF1CXUQV0CRKQuASA6gwlUSF1CHdQlQDTb29vp0aNHDgFAaAYTqIi6hDqoS4CI1CUANIHBBCqiLqEO6hIgGnUJAE1hMIEKqEuog7oEiEhdAkBTGEygAuoS6qAuAaJRlwDQJAYT2LCiKNQlVE5dAkSkLgGgSQwmsGGz2cwRqNRwOFSXAOGoSwBoGoMJbFBRFGk0GjkEldrf31eXAOGoSwBoGoMJbNDh4aEjUKnhcJhevHjhEEAo6hIAmshgAhuyXC7TZDJxCCqlLgGi6fV66hIAGslgAhsyHo8dgUoNh8O0t7fnEEAo6hIAmspgAhugLqEOBwcHjgCE0uv10tbWlkMA0EgGE9gAdQlVGw6H6fnz5w4BhKIuAaDJDCawZuoS6qAuAaJRlwDQdAYTWDN1CVVTlwAR7ezsqEsAaDSDCayRuoQ6qEuAaNQlALSBwQTWSF1C1dQlQEQ7OzuOAEDjGUxgTdQl1EFdAkSjLgGgLQwmsCbqEqqmLgEiUpcA0BYGk//fzh2jtpWGURi+01iNQWAQxChgsgJXXoUXIINLFalUu3KVSr2bFC6F8AJUBe9AhbagJdwVeIrAZHImTmzL/Pefe59nCV/5cvjgHTw+PlqXUJx1CVAb6xIA+kQwgQO1bdus12uHoCjrEqBG1iUA9IlgAgfabrfWJRR3e3vrCEBVrEsA6BvBBA5gXUIXlstlc3Z25hBAVaxLAOgbwQQOsNlsrEsobjabOQJQFesSAPpIMIE3atu2ub6+dgiKsi4BamRdAkAfCSbwRpvNxhEo7vPnz44AVGU8HluXANBLggm8gXUJXVitVs14PHYIoCqnp6eOAEAvCSbwBtYldOHy8tIRgKqMx+Pm+PjYIQDoJcEEXsm6hC5YlwA1si4BoM8EE3gl6xK6YF0C1GYymViXANBrggm8gnUJXbAuAWpkXQJA3wkm8ArWJXTBugSozWQyaY6OjhwCgF4TTOCFrEvognUJUCPrEgCGQDCBF7IuoQvWJUBtrEsAGArBBF7AuoQuWJcANbIuAWAoBBN4ga9fvzoCxVmXALWxLgFgSAQT+IP9ft/c3Nw4BEV9+/bNugSojnUJAEMimMAfPDw8OAJFzefz5uLiwiGAqliXADA0ggn8xm63sy6huKurK+sSoDrWJQAMjWACv3F3d+cIFGVdAtTIugSAIRJM4Bm73a65v793CIpaLBbWJUBVRqORdQkAgySYwDOsSyhtPp835+fnDgFUxboEgKESTOAXrEvowmKxcASgKqPRqDk5OXEIAAZJMIFfsC6hNOsSoEbWJQAMmWACwbqELliXALUZjUbNhw8fHAKAwRJMIFiXUJp1CVCj6XTqCAAMmmAC/2JdQhesS4Da+F0CAIIJ/MS6hNKsS4AaWZcAgGAC/7AuoQvWJUBtrEsA4DvBBJqmadvWuoTirEuAGlmXAMB3ggk0TbPdbq1LKM66BKiNdQkA/CCYMHht2zbr9dohKMq6BKiRdQkA/CCYMHjWJXTh9vbWEYCqWJcAwM8EEwbNuoQuLJfL5uzszCGAqliXAMDPBBMGbbPZWJdQ3Gw2cwSgKtYlAPBfggmD1bZtc3197RAUtVqtrEuA6nz69MkRACAIJgzWZrNxBIq7vLx0BKAq4/G4OT4+dggACIIJg2RdQhdWq1UzHo8dAqjK6empIwDALwgmDJJ1CV2wLgFqY10CAM8TTBgc6xK6YF0C1MhPJQB4nmDC4FiX0AXrEqA2k8mkOTo6cggAeIZgwqBYl9AF6xKgRn6XAMDvCSYMinUJXbAuAWpjXQIAfyaYMBjWJXTBugSokXUJAPyZYMJgWJfQBesSoDbWJQDwMoIJg7Df761LKM66BKiRdQkAvIxgwiA8PDw4AkXN53PrEqA61iUA8HKCCb233++bm5sbh6Coq6sr6xKgOtYlAPByggm99+XLF0egqPl83lxcXDgEUBXrEgB4HcGEXtvtds39/b1DUJR1CVAj6xIAeB3BhF67u7tzBIqyLgFq9PHjR+sSAHglwYTesi6hC4vFwroEqMpoNGpOTk4cAgBeSTCht6xLKG0+nzfn5+cOAVTF7xIAeBvBhF6yLqELi8XCEYCqWJcAwNsJJvSSdQmlWZcANZpOp9YlAPBGggm9Y11CF6xLgNpYlwDAYQQTese6hNKsS4AaTadTRwCAAwgm9Ip1CV2wLgFqY10CAIcTTOgV6xJKsy4BamRdAgCHE0zojcfHR+sSirMuAWpjXQIA70MwoRfatm3W67VDUJR1CVAj6xIAeB+CCb2w3W6tSyjOugSojXUJALwfwYT/PesSurBcLq1LgOpYlwDA+xFM+N+zLqELs9nMEYCqWJcAwPv66+np6ckZAAAAAH6wMAEAAAAIggkAAABAEEwAAAAAgmACAAAAEAQTAAAAgCCYAAAAAATBBAAAACAIJgAAAABBMAEAAAAIggkAAABAEEwAAAAAgmACAAAAEAQTAAAAgCCYAAAAAATBBAAAACAIJgAAAABBMAEAAAAIggkAAABAEEwAAAAAgmACAAAAEAQTAAAAgCCYAAAAAATBBAAAACAIJgAAAABBMAEAAAAIggkAAABAEEwAAAAAgmACAAAAEAQTAAAAgCCYAAAAAATBBAAAACAIJgAAAABBMAEAAAAIggkAAABAEEwAAAAAgmACAAAAEAQTAAAAgCCYAAAAAATBBAAAACAIJgAAAABBMAEAAAAIggkAAABAEEwAAAAAgmACAAAAEAQTAAAAgCCYAAAAAATBBAAAACAIJgAAAABBMAEAAAAIggkAAABAEEwAAAAAgmACAAAAEAQTAAAAgCCYAAAAAATBBAAAACAIJgAAAABBMAEAAAAIggkAAABAEEwAAAAAgmACAAAAEAQTAAAAgCCYAAAAAATBBAAAACAIJgAAAABBMAEAAAAIggkAAABAEEwAAAAAgmACAAAAEAQTAAAAgCCYAAAAAATBBAAAACAIJgAAAABBMAEAAAAIggkAAABAEEwAAAAAgmACAAAAEAQTAAAAgCCYAAAAAATBBAAAACAIJgAAAABBMAEAAAAIggkAAABAEEwAAAAAgmACAAAAEAQTAAAAgCCYAAAAAATBBAAAACAIJgAAAABBMAEAAAAIggkAAABAEEwAAAAAgmACAAAAEAQTAAAAgCCYAAAAAATBBAAAACAIJgAAAABBMAEAAAAIggkAAABAEEwAAAAAgmACAAAAEAQTAAAAgCCYAAAAAATBBAAAACAIJgAAAABBMAEAAAAIggkAAABAEEwAAAAAgmACAAAAEAQTAAAAgCCYAAAAAATBBAAAACAIJgAAAABBMAEAAAAIggkAAABAEEwAAAAAgmACAAAAEAQTAAAAgCCYAAAAAATBBAAAACAIJgAAAABBMAEAAAAIggkAAABAEEwAAAAAgmACAAAAEAQTAAAAgCCYAAAAAATBBAAAACAIJgAAAABBMAEAAAAIggkAAABAEEwAAAAAgmACAAAAEAQTAAAAgCCYAAAAAATBBAAAACAIJgAAAABBMAEAAAAIggkAAABAEEwAAAAAgmACAAAAEAQTAAAAgCCYAAAAAATBBAAAACAIJgAAAABBMAEAAAAIggkAAABAEEwAAAAAgmACAAAAEAQTAAAAgCCYAAAAAATBBAAAACAIJgAAAABBMAEAAAAIggkAAABAEEwAAAAAgmACAAAAEAQTAAAAgCCYAAAAAATBBAAAACAIJgAAAABBMAEAAAAIggkAAABAEEwAAAAAgmACAAAAEAQTAAAAgCCYAAAAAATBBAAAACAIJgAAAABBMAEAAAAIggkAAABAEEwAAAAAgmACAAAAEAQTAAAAgCCYAAAAAATBBAAAACAIJgAAAABBMAEAAAAIggkAAABAEEwAAAAAgmACAAAAEAQTAAAAgCCYAAAAAATBBAAAACAIJgAAAABBMAEAAAAIggkAAABAEEwAAAAAgmACAAAAEAQTAAAAgCCYAAAAAATBBAAAACAIJgAAAABBMAEAAAAIggkAAABAEEwAAAAAgmACAAAAEAQTAAAAgCCYAAAAAATBBAAAACAIJgAAAABBMAEAAAAIggkAAABAEEwAAAAAgmACAAAAEAQTAAAAgCCYAAAAAATBBAAAACAIJgAAAABBMAEAAAAIggkAAABAEEwAAAAAgmACAAAAEAQTAAAAgCCYAAAAAATBBAAAACAIJgAAAABBMAEAAAAIggkAAABAEEwAAAAAgmACAAAAEAQTAAAAgCCYAAAAAATBBAAAACAIJgAAAABBMAEAAAAIggkAAABAEEwAAAAAgmACAAAAEAQTAAAAgCCYAAAAAATBBAAAACAIJgAAAABBMAEAAAAIggkAAABAEEwAAAAAgmACAAAAEAQTAAAAgCCYAAAAAATBBAAAACAIJgAAAABBMAEAAAAIggkAAABAEEwAAAAAgmACAAAAEAQTAAAAgCCYAAAAAATBBAAAACAIJgAAAABBMAEAAAAIggkAAABAEEwAAAAAgmACAAAAEAQTAAAAgCCYAAAAAATBBAAAACAIJgAAAABBMAEAAAAIggkAAABAEEwAAAAAgmACAAAAEAQTAAAAgCCYAAAAAATBBAAAACAIJgAAAADhb47+zeAU7+NtAAAAAElFTkSuQmCC;" vertex="1" parent="1">
          <mxGeometry x="256" y="335" width="30" height="30" as="geometry" />
        </mxCell>
        <mxCell id="Ew0dXAfvq3uIeFe922-x-22" style="edgeStyle=orthogonalEdgeStyle;rounded=0;orthogonalLoop=1;jettySize=auto;html=1;exitX=1;exitY=0.5;exitDx=0;exitDy=0;entryX=0;entryY=0.5;entryDx=0;entryDy=0;" edge="1" parent="1" source="Ew0dXAfvq3uIeFe922-x-19" target="Ew0dXAfvq3uIeFe922-x-12">
          <mxGeometry relative="1" as="geometry" />
        </mxCell>
        <mxCell id="Ew0dXAfvq3uIeFe922-x-19" value="" style="strokeColor=#dddddd;shadow=1;strokeWidth=1;rounded=1;absoluteArcSize=1;arcSize=2;" vertex="1" parent="1">
          <mxGeometry x="20" y="250" width="150" height="60" as="geometry" />
        </mxCell>
        <mxCell id="Ew0dXAfvq3uIeFe922-x-20" value="&lt;font color=&quot;#000000&quot;&gt;Uber_data&lt;/font&gt;&lt;br&gt;Cloud Storage" style="editableCssRules=.*;html=1;fontColor=#999999;shape=image;verticalLabelPosition=middle;verticalAlign=middle;labelPosition=right;align=left;spacingLeft=20;part=1;points=[];imageAspect=0;image=data:image/svg+xml,PHN2ZyB4bWxucz0iaHR0cDovL3d3dy53My5vcmcvMjAwMC9zdmciIHhtbG5zOnY9Imh0dHBzOi8vdmVjdGEuaW8vbmFubyIgd2lkdGg9IjIwIiBoZWlnaHQ9IjE2IiB2aWV3Qm94PSIwIDAgMjAgMTYiPiYjeGE7CTxzdHlsZSB0eXBlPSJ0ZXh0L2NzcyI+JiN4YTsJLnN0MHtmaWxsOiM0Mjg1ZjQ7fSYjeGE7CS5zdDF7ZmlsbDojNjY5ZGY2O30mI3hhOwkuc3Qye2ZpbGw6I2FlY2JmYTt9JiN4YTsJLnN0M3tmaWxsOiNmZmY7fSYjeGE7CTwvc3R5bGU+JiN4YTsJPHBhdGggY2xhc3M9InN0MiIgZD0iTTAgMGgyMHY3SDB6Ii8+JiN4YTsJPHBhdGggY2xhc3M9InN0MSIgZD0iTTE4IDBoMnY3aC0yeiIvPiYjeGE7CTxwYXRoIGNsYXNzPSJzdDAiIGQ9Ik0xOCA3bDItN2gtMnoiLz4mI3hhOwk8cGF0aCBjbGFzcz0ic3QxIiBkPSJNMCAwaDJ2N0gweiIvPiYjeGE7CTxnIGNsYXNzPSJzdDMiPiYjeGE7CQk8cGF0aCBkPSJNNCAzaDZ2MUg0eiIvPiYjeGE7CQk8cmVjdCB4PSIxMyIgeT0iMiIgd2lkdGg9IjMiIGhlaWdodD0iMyIgcng9IjEuNSIvPiYjeGE7CTwvZz4mI3hhOwk8cGF0aCBjbGFzcz0ic3QyIiBkPSJNMCA5aDIwdjdIMHoiLz4mI3hhOwk8cGF0aCBjbGFzcz0ic3QxIiBkPSJNMTggOWgydjdoLTJ6Ii8+JiN4YTsJPHBhdGggY2xhc3M9InN0MCIgZD0iTTE4IDE2bDItN2gtMnoiLz4mI3hhOwk8cGF0aCBjbGFzcz0ic3QxIiBkPSJNMCA5aDJ2N0gweiIvPiYjeGE7CTxnIGNsYXNzPSJzdDMiPiYjeGE7CQk8cGF0aCBkPSJNNCAxMmg2djFINHoiLz4mI3hhOwkJPHJlY3QgeD0iMTMiIHk9IjExIiB3aWR0aD0iMyIgaGVpZ2h0PSIzIiByeD0iMS41Ii8+JiN4YTsJPC9nPiYjeGE7PC9zdmc+;" vertex="1" parent="Ew0dXAfvq3uIeFe922-x-19">
          <mxGeometry width="30" height="24" relative="1" as="geometry">
            <mxPoint x="15" y="18" as="offset" />
          </mxGeometry>
        </mxCell>
        <mxCell id="Ew0dXAfvq3uIeFe922-x-23" value="" style="strokeColor=#dddddd;shadow=1;strokeWidth=1;rounded=1;absoluteArcSize=1;arcSize=2;" vertex="1" parent="1">
          <mxGeometry x="540" y="230" width="130" height="60" as="geometry" />
        </mxCell>
        <mxCell id="Ew0dXAfvq3uIeFe922-x-24" value="BigQuery" style="editableCssRules=.*;html=1;fontColor=#999999;shape=image;verticalLabelPosition=middle;verticalAlign=middle;labelPosition=right;align=left;spacingLeft=20;part=1;points=[];imageAspect=0;image=data:image/svg+xml,PHN2ZyB4bWxucz0iaHR0cDovL3d3dy53My5vcmcvMjAwMC9zdmciIHhtbG5zOnY9Imh0dHBzOi8vdmVjdGEuaW8vbmFubyIgd2lkdGg9IjIwLjAwMTA0NTIyNzA1MDc4IiBoZWlnaHQ9IjIwLjAwMTA0NTIyNzA1MDc4IiBmaWxsLXJ1bGU9ImV2ZW5vZGQiIHZpZXdCb3g9IjAgMCAyMC4wMDEwNDUyMjcwNTA3OCAyMC4wMDEwNDUyMjcwNTA3OCI+JiN4YTsJPHN0eWxlIHR5cGU9InRleHQvY3NzIj4mI3hhOwkuc3Qwe2ZpbGw6I2FlY2JmYTt9JiN4YTsJLnN0MXtmaWxsOiM2NjlkZjY7fSYjeGE7CS5zdDJ7ZmlsbDojNDI4NWY0O30mI3hhOwk8L3N0eWxlPiYjeGE7CTxwYXRoIGNsYXNzPSJzdDAiIGQ9Ik00LjczIDguODN2Mi42M2E0LjkxIDQuOTEgMCAwIDAgMS43MSAxLjc0VjguODN6Ii8+JiN4YTsJPHBhdGggY2xhc3M9InN0MSIgZD0iTTcuODkgNi40MXY3LjUzQTcuNjIgNy42MiAwIDAgMCA5IDE0YTggOCAwIDAgMCAxIDBWNi40MXoiLz4mI3hhOwk8cGF0aCBjbGFzcz0ic3QwIiBkPSJNMTEuNjQgOS44NnYzLjI5YTUgNSAwIDAgMCAxLjctMS44MlY5Ljg2eiIvPiYjeGE7CTxwYXRoIGNsYXNzPSJzdDIiIGQ9Ik0xNS43NCAxNC4zMmwtMS40MiAxLjQyYS40Mi40MiAwIDAgMCAwIC42bDMuNTQgMy41NGEuNDIuNDIgMCAwIDAgLjU5IDBsMS40My0xLjQzYS40Mi40MiAwIDAgMCAwLS41OWwtMy41NC0zLjU0YS40Mi40MiAwIDAgMC0uNiAwIi8+JiN4YTsJPHBhdGggY2xhc3M9InN0MSIgZD0iTTkgMGE5IDkgMCAxIDAgMCAxOEE5IDkgMCAxIDAgOSAwbTAgMTUuNjlhNi42OCA2LjY4IDAgMCAxIC4wMDctMTMuMzYgNi42OCA2LjY4IDAgMCAxIDQuNzI3IDExLjQwM0E2LjY4IDYuNjggMCAwIDEgOSAxNS42OSIvPiYjeGE7PC9zdmc+;" vertex="1" parent="Ew0dXAfvq3uIeFe922-x-23">
          <mxGeometry width="30" height="30" relative="1" as="geometry">
            <mxPoint x="15" y="15" as="offset" />
          </mxGeometry>
        </mxCell>
        <mxCell id="Ew0dXAfvq3uIeFe922-x-26" value="" style="shape=cylinder3;whiteSpace=wrap;html=1;boundedLbl=1;backgroundOutline=1;size=15;" vertex="1" parent="1">
          <mxGeometry x="740" y="220" width="60" height="80" as="geometry" />
        </mxCell>
        <mxCell id="Ew0dXAfvq3uIeFe922-x-27" style="edgeStyle=orthogonalEdgeStyle;rounded=0;orthogonalLoop=1;jettySize=auto;html=1;exitX=1;exitY=0.5;exitDx=0;exitDy=0;entryX=0;entryY=0.5;entryDx=0;entryDy=0;entryPerimeter=0;" edge="1" parent="1" source="Ew0dXAfvq3uIeFe922-x-23" target="Ew0dXAfvq3uIeFe922-x-26">
          <mxGeometry relative="1" as="geometry" />
        </mxCell>
        <mxCell id="Ew0dXAfvq3uIeFe922-x-28" value="DataSet pour analyser l&#39;activitÃ©" style="text;html=1;strokeColor=none;fillColor=none;align=center;verticalAlign=middle;whiteSpace=wrap;rounded=0;" vertex="1" parent="1">
          <mxGeometry x="725" y="320" width="90" height="30" as="geometry" />
        </mxCell>
      </root>
    </mxGraphModel>
  </diagram>
</mxfile>
